<?xml version="1.0" encoding="UTF-8"?><svg xmlns="http://www.w3.org/2000/svg" viewBox="0 0 4636.32 1932.62"><defs><style>.cls-1,.cls-2{fill:#17c3ff;}.cls-2{font-family:Baloo2-ExtraBold, 'Baloo 2';font-size:472.88px;font-variation-settings:'wght' 800;font-weight:700;}.cls-3,.cls-4{fill:#d81e1e;}.cls-3,.cls-4,.cls-5,.cls-6{stroke-miterlimit:10;}.cls-3,.cls-5{stroke:#000;}.cls-4,.cls-6{stroke:red;}.cls-5,.cls-6{fill:none;}.cls-7{letter-spacing:-.01em;}.cls-8{letter-spacing:0em;}</style></defs><g id="Camada_1"><g><rect class="cls-5" x="1519.43" y="1289.12" width="643" height="643"/><line class="cls-5" x1="1519.43" y1="1878.54" x2="2162.43" y2="1878.54"/><line class="cls-5" x1="1519.43" y1="1824.95" x2="2162.43" y2="1824.95"/><line class="cls-5" x1="1519.43" y1="1771.37" x2="2162.43" y2="1771.37"/><line class="cls-5" x1="1519.43" y1="1717.79" x2="2162.43" y2="1717.79"/><line class="cls-5" x1="1519.43" y1="1664.2" x2="2162.43" y2="1664.2"/><line class="cls-5" x1="1519.43" y1="1610.62" x2="2162.43" y2="1610.62"/><line class="cls-5" x1="1519.43" y1="1557.04" x2="2162.43" y2="1557.04"/><line class="cls-5" x1="1519.43" y1="1503.45" x2="2162.43" y2="1503.45"/><line class="cls-5" x1="1519.43" y1="1449.87" x2="2162.43" y2="1449.87"/><line class="cls-5" x1="1519.43" y1="1396.29" x2="2162.43" y2="1396.29"/><line class="cls-5" x1="1519.43" y1="1342.7" x2="2162.43" y2="1342.7"/><line class="cls-5" x1="2108.85" y1="1289.12" x2="2108.85" y2="1932.12"/><line class="cls-5" x1="2055.27" y1="1289.12" x2="2055.27" y2="1932.12"/><line class="cls-5" x1="2001.68" y1="1289.12" x2="2001.68" y2="1932.12"/><line class="cls-5" x1="1948.1" y1="1289.12" x2="1948.1" y2="1932.12"/><line class="cls-5" x1="1894.52" y1="1289.12" x2="1894.52" y2="1932.12"/><line class="cls-5" x1="1840.93" y1="1289.12" x2="1840.93" y2="1932.12"/><line class="cls-5" x1="1787.35" y1="1289.12" x2="1787.35" y2="1932.12"/><line class="cls-5" x1="1733.77" y1="1289.12" x2="1733.77" y2="1932.12"/><line class="cls-5" x1="1680.18" y1="1289.12" x2="1680.18" y2="1932.12"/><line class="cls-5" x1="1626.6" y1="1289.12" x2="1626.6" y2="1932.12"/><line class="cls-5" x1="1573.02" y1="1289.12" x2="1573.02" y2="1932.12"/></g></g><g id="Camada_2"><path class="cls-5" d="M1626.6,1289.12h294.71v107.17h-294.71c-29.57,0-53.58-24.01-53.58-53.58h0c0-29.57,24.01-53.58,53.58-53.58Z"/><path class="cls-5" d="M1573.02,1449.87h160.75v107.17h-160.75c-29.57,0-53.58-24.01-53.58-53.58h0c0-29.57,24.01-53.58,53.58-53.58Z"/><circle class="cls-5" cx="1653.39" cy="1423.08" r="26.79"/><circle class="cls-5" cx="1921.31" cy="1262.33" r="26.79"/><path class="cls-5" d="M1680.18,1610.62h53.58v107.17h-53.58c-29.57,0-53.58-24.01-53.58-53.58h0c0-29.57,24.01-53.58,53.58-53.58Z"/><circle class="cls-5" cx="1680.18" cy="1583.83" r="26.79"/><circle class="cls-5" cx="1921.31" cy="1155.15" r="80.37"/><circle class="cls-5" cx="2123.63" cy="1214.4" r="80.37"/><circle class="cls-5" cx="2262.04" cy="1373.41" r="80.37"/><circle class="cls-5" cx="2292.82" cy="1581.97" r="80.37"/><circle class="cls-6" cx="1921.31" cy="1530.25" r="241.12"/><path class="cls-6" d="M1760.56,1878.54h-26.79c-53.68-4.71-62.34-40.42-53.58-80.37l53.58-241.13h160.75l-53.58,241.13c-11.01,43.6-46.25,79.64-80.37,80.37Z"/><circle class="cls-6" cx="1921.31" cy="1530.25" r="107.17"/><circle class="cls-1" cx="2586" cy="80.38" r="80.37"/><circle class="cls-1" cx="2796.5" cy="91.85" r="80.37"/><circle class="cls-1" cx="2967.57" cy="215.05" r="80.37"/><circle class="cls-1" cx="3045.17" cy="411.07" r="80.37"/><path class="cls-1" d="M2912.79,445.56c0,133.17-107.96,241.12-241.13,241.12-25.07,0-49.25-3.83-71.99-10.93l-8.38,37.72c-11.02,43.6-46.26,79.64-80.38,80.38h-26.79c-53.68-4.71-62.34-40.42-53.58-80.38l17.86-80.37h-17.86c-14.8,0-28.2-6-37.89-15.69-9.7-9.7-15.7-23.1-15.7-37.9,0-29.59,23.99-53.58,53.59-53.58,4.56,0,8.87-1.14,12.63-3.16,8.43-4.51,14.16-13.4,14.16-23.63,0-14.3-11.21-25.98-25.31-26.75-.01-.01-.01-.03-.01-.04h-108.64c-14.8,0-28.19-6-37.89-15.7-9.69-9.69-15.69-23.09-15.69-37.89,0-29.59,23.99-53.58,53.58-53.58h80.38c14.79,0,26.79-11.99,26.79-26.79s-12-26.79-26.79-26.79h-26.8c-14.8,0-28.19-6-37.89-15.69-9.69-9.7-15.69-23.1-15.69-37.9,0-29.59,23.99-53.58,53.58-53.58h294.71c133.17,0,241.13,107.96,241.13,241.13Z"/><circle class="cls-1" cx="1597.51" cy="314.04" r="80.37"/><circle class="cls-1" cx="1807.58" cy="331.75" r="80.37"/><circle class="cls-1" cx="1974.92" cy="459.97" r="80.37"/><circle class="cls-1" cx="2046.66" cy="658.21" r="80.37"/><path class="cls-1" d="M1671.73,440.6h-294.71c-29.59,0-53.58,23.99-53.58,53.58,0,14.8,6,28.2,15.69,37.9,9.7,9.69,23.09,15.69,37.89,15.69h26.8c14.79,0,26.79,11.99,26.79,26.79s-12,26.79-26.79,26.79h-80.38c-29.59,0-53.58,23.99-53.58,53.58,0,14.8,6,28.2,15.69,37.89,9.7,9.7,23.09,15.7,37.89,15.7h108.64s0,.03,.01,.04c14.1,.77,25.31,12.45,25.31,26.75,0,10.23-5.73,19.12-14.16,23.63-3.76,2.02-8.07,3.16-12.63,3.16-29.6,0-53.59,23.99-53.59,53.58,0,14.8,6,28.2,15.7,37.9,9.69,9.69,23.09,15.69,37.89,15.69h17.86l-17.86,80.37c-8.76,39.96-.1,75.67,53.58,80.38h26.79c34.12-.74,69.36-36.78,80.38-80.38l8.38-37.72c22.74,7.1,46.92,10.93,71.99,10.93,133.17,0,241.13-107.95,241.13-241.12s-107.96-241.13-241.13-241.13Zm0,348.29c-15.17,0-29.6-3.15-42.68-8.84-29.97-13.03-52.82-39.36-61.11-71.53-2.2-8.56-3.37-17.54-3.37-26.79,0-59.19,47.98-107.17,107.16-107.17s107.17,47.98,107.17,107.17-47.98,107.16-107.17,107.16Z"/><circle class="cls-3" cx="402.38" cy="651.83" r="53.58"/><circle class="cls-3" cx="562.58" cy="691.88" r="53.58"/><circle class="cls-3" cx="685.09" cy="802.6" r="53.58"/><circle class="cls-3" cx="741.09" cy="957.95" r="53.58"/><path class="cls-4" d="M402.38,751.15H107.67c-29.6,0-53.59,23.99-53.59,53.58,0,14.8,6,28.2,15.69,37.89,9.7,9.7,23.1,15.7,37.9,15.7h26.79c14.8,0,26.79,11.99,26.79,26.79s-11.99,26.79-26.79,26.79H54.08c-29.59,0-53.58,23.99-53.58,53.58,0,14.8,6,28.2,15.69,37.9,9.7,9.69,23.1,15.69,37.89,15.69h108.64s0,.03,.01,.04c14.11,.77,25.31,12.45,25.31,26.75,0,10.23-5.73,19.12-14.16,23.63,.36,1.06,.72,2.11,1.09,3.16h-13.72c-29.59,0-53.58,23.99-53.58,53.58,0,14.8,6,28.2,15.69,37.89,9.7,9.7,23.09,15.7,37.89,15.7h17.86l-17.86,80.37c-8.76,39.96-.1,75.67,53.58,80.38h26.8c34.12-.74,69.36-36.78,80.37-80.38l8.38-37.72c22.74,7.1,46.92,10.93,72,10.93,133.17,0,241.12-107.95,241.12-241.12s-107.95-241.13-241.12-241.13Zm0,348.29c-15.17,0-29.61-3.15-42.69-8.85-29.97-13.02-52.82-39.35-61.11-71.52-2.2-8.56-3.37-17.54-3.37-26.79,0-59.19,47.98-107.17,107.17-107.17s107.16,47.98,107.16,107.17-47.98,107.16-107.16,107.16Z"/><text class="cls-2" transform="translate(3394.08 658.21)"><tspan class="cls-8" x="0" y="0">P</tspan><tspan x="270.02" y="0">a</tspan><tspan class="cls-7" x="527.26" y="0">P</tspan><tspan x="794.91" y="0">et</tspan></text></g></svg>